<mxfile host="app.diagrams.net" modified="2024-05-11T11:13:48.337Z" agent="Mozilla/5.0 (Windows NT 10.0; Win64; x64) AppleWebKit/537.36 (KHTML, like Gecko) Chrome/122.0.0.0 YaBrowser/24.4.0.0 Safari/537.36" etag="WDlPx7h1CdIOMAI3UKAk" version="24.4.0" type="github">
  <diagram name="Страница — 1" id="_Dna42i9u4ze2QL8LWOY">
    <mxGraphModel dx="1434" dy="791" grid="1" gridSize="10" guides="1" tooltips="1" connect="1" arrows="1" fold="1" page="1" pageScale="1" pageWidth="827" pageHeight="1169" math="0" shadow="0">
      <root>
        <mxCell id="0" />
        <mxCell id="1" parent="0" />
        <mxCell id="10jJWK-blG1WuYGpEJU--1" value="" style="rounded=1;whiteSpace=wrap;html=1;aspect=fixed;movable=0;resizable=0;rotatable=0;deletable=0;editable=0;locked=1;connectable=0;" vertex="1" parent="1">
          <mxGeometry x="40" y="40" width="640" height="400" as="geometry" />
        </mxCell>
        <mxCell id="10jJWK-blG1WuYGpEJU--2" value="" style="rounded=1;whiteSpace=wrap;html=1;fillColor=#60a917;strokeColor=#2D7600;fontColor=#ffffff;" vertex="1" parent="1">
          <mxGeometry x="80" y="50" width="70" height="30" as="geometry" />
        </mxCell>
        <mxCell id="10jJWK-blG1WuYGpEJU--3" value="" style="rounded=1;whiteSpace=wrap;html=1;fillColor=#60a917;strokeColor=#2D7600;fontColor=#ffffff;" vertex="1" parent="1">
          <mxGeometry x="290" y="50" width="70" height="30" as="geometry" />
        </mxCell>
        <mxCell id="10jJWK-blG1WuYGpEJU--4" value="" style="rounded=1;whiteSpace=wrap;html=1;fillColor=#60a917;strokeColor=#2D7600;fontColor=#ffffff;" vertex="1" parent="1">
          <mxGeometry x="220" y="50" width="70" height="30" as="geometry" />
        </mxCell>
        <mxCell id="10jJWK-blG1WuYGpEJU--5" value="" style="rounded=1;whiteSpace=wrap;html=1;fillColor=#60a917;strokeColor=#2D7600;fontColor=#ffffff;" vertex="1" parent="1">
          <mxGeometry x="150" y="50" width="70" height="30" as="geometry" />
        </mxCell>
        <mxCell id="10jJWK-blG1WuYGpEJU--6" value="" style="rounded=1;whiteSpace=wrap;html=1;fillColor=#60a917;strokeColor=#2D7600;fontColor=#ffffff;" vertex="1" parent="1">
          <mxGeometry x="570" y="50" width="70" height="30" as="geometry" />
        </mxCell>
        <mxCell id="10jJWK-blG1WuYGpEJU--7" value="" style="rounded=1;whiteSpace=wrap;html=1;fillColor=#60a917;strokeColor=#2D7600;fontColor=#ffffff;" vertex="1" parent="1">
          <mxGeometry x="360" y="50" width="70" height="30" as="geometry" />
        </mxCell>
        <mxCell id="10jJWK-blG1WuYGpEJU--8" value="" style="rounded=1;whiteSpace=wrap;html=1;fillColor=#60a917;strokeColor=#2D7600;fontColor=#ffffff;" vertex="1" parent="1">
          <mxGeometry x="430" y="50" width="70" height="30" as="geometry" />
        </mxCell>
        <mxCell id="10jJWK-blG1WuYGpEJU--9" value="" style="rounded=1;whiteSpace=wrap;html=1;fillColor=#60a917;strokeColor=#2D7600;fontColor=#ffffff;" vertex="1" parent="1">
          <mxGeometry x="500" y="50" width="70" height="30" as="geometry" />
        </mxCell>
        <mxCell id="10jJWK-blG1WuYGpEJU--10" value="" style="rounded=1;whiteSpace=wrap;html=1;fillColor=#fa6800;fontColor=#000000;strokeColor=#C73500;" vertex="1" parent="1">
          <mxGeometry x="290" y="400" width="120" height="10" as="geometry" />
        </mxCell>
        <mxCell id="10jJWK-blG1WuYGpEJU--11" value="" style="ellipse;whiteSpace=wrap;html=1;aspect=fixed;fillColor=#e51400;fontColor=#ffffff;strokeColor=#B20000;" vertex="1" parent="1">
          <mxGeometry x="340" y="350" width="20" height="20" as="geometry" />
        </mxCell>
        <mxCell id="10jJWK-blG1WuYGpEJU--12" value="&lt;b&gt;&lt;font style=&quot;font-size: 20px;&quot;&gt;MAIN VIEW&lt;/font&gt;&lt;/b&gt;" style="text;html=1;align=center;verticalAlign=middle;resizable=0;points=[];autosize=1;strokeColor=none;fillColor=none;" vertex="1" parent="1">
          <mxGeometry x="270" y="5" width="130" height="40" as="geometry" />
        </mxCell>
        <mxCell id="10jJWK-blG1WuYGpEJU--14" value="GAME FLOW" style="text;html=1;align=center;verticalAlign=middle;whiteSpace=wrap;rounded=0;fontSize=20;fontStyle=1" vertex="1" parent="1">
          <mxGeometry x="1170" y="10" width="160" height="30" as="geometry" />
        </mxCell>
        <mxCell id="10jJWK-blG1WuYGpEJU--15" value="&lt;h1 style=&quot;margin-top: 0px;&quot;&gt;Tiles initial&lt;/h1&gt;&lt;div&gt;Init tiles one by one (row)&lt;/div&gt;&lt;div&gt;Color ?&lt;/div&gt;" style="text;html=1;whiteSpace=wrap;overflow=hidden;rounded=0;" vertex="1" parent="1">
          <mxGeometry x="890" y="80" width="180" height="120" as="geometry" />
        </mxCell>
      </root>
    </mxGraphModel>
  </diagram>
</mxfile>
